<?xml version="1.0" standalone="no"?>
<!DOCTYPE svg PUBLIC "-//W3C//DTD SVG 20010904//EN"
 "http://www.w3.org/TR/2001/REC-SVG-20010904/DTD/svg10.dtd">
<svg version="1.0" xmlns="http://www.w3.org/2000/svg"
 width="260.000000pt" height="260.000000pt" viewBox="0 0 260.000000 260.000000"
 preserveAspectRatio="xMidYMid meet">
<metadata>
Created by potrace 1.14, written by Peter Selinger 2001-2017
</metadata>
<g transform="translate(0.000000,260.000000) scale(0.100000,-0.100000)"
fill="#000000" stroke="none">
<path d="M0 1300 l0 -1300 1300 0 1300 0 0 1300 0 1300 -1300 0 -1300 0 0
-1300z m935 529 c133 -41 195 -134 195 -293 0 -155 -46 -238 -162 -292 l-63
-29 -237 -3 -238 -4 0 -227 c0 -216 -1 -230 -21 -255 -27 -34 -86 -37 -115 -5
-18 20 -19 44 -19 556 l0 535 24 19 c22 18 42 19 296 19 248 0 279 -2 340 -21z
m535 -5 c10 -11 91 -135 180 -277 131 -208 165 -256 175 -245 7 7 82 126 168
264 86 138 164 257 172 264 9 7 37 15 63 18 37 3 53 0 72 -16 l25 -20 0 -535
c0 -512 -1 -536 -19 -556 -23 -25 -82 -28 -112 -7 -18 14 -19 33 -24 438 l-5
423 -144 -233 c-79 -128 -153 -239 -165 -247 -26 -19 -56 -19 -83 0 -12 8 -86
119 -165 247 l-143 233 -5 -424 c-5 -404 -6 -423 -24 -437 -30 -21 -89 -18
-112 7 -18 20 -19 44 -19 556 l0 535 25 20 c31 25 112 21 140 -8z"/>
<path d="M430 1529 l0 -170 218 3 c205 3 219 4 253 26 44 27 69 82 69 150 0
67 -26 112 -80 140 -42 21 -56 22 -252 22 l-208 0 0 -171z"/>
</g>
</svg>
